<svg width="354" height="364" viewBox="0 0 354 364" fill="none" xmlns="http://www.w3.org/2000/svg">
<g opacity="0.04">
<path d="M-37.0335 344V244H-19.3192L12.1094 290.286L43.2522 244H61.1094V344H44.538V270.143L11.9665 318.286L-20.4621 270.429V344H-37.0335ZM75.1864 308.429V294.571H118.044V308.429H75.1864ZM132.063 344V244H163.491C173.301 244 181.967 246.143 189.491 250.429C197.11 254.619 203.063 260.476 207.348 268C211.729 275.524 213.92 284.19 213.92 294C213.92 303.714 211.729 312.333 207.348 319.857C203.063 327.381 197.11 333.286 189.491 337.571C181.967 341.857 173.301 344 163.491 344H132.063ZM148.634 328.571H163.491C168.158 328.571 172.539 327.714 176.634 326C180.729 324.19 184.301 321.714 187.348 318.571C190.396 315.429 192.777 311.762 194.491 307.571C196.205 303.381 197.063 298.857 197.063 294C197.063 289.143 196.205 284.619 194.491 280.429C192.777 276.238 190.396 272.571 187.348 269.429C184.301 266.286 180.729 263.857 176.634 262.143C172.539 260.333 168.158 259.429 163.491 259.429H148.634V328.571ZM223.679 344V272.571H239.536V344H223.679ZM231.679 259C229.107 259 226.869 258.095 224.964 256.286C223.155 254.381 222.25 252.143 222.25 249.571C222.25 247 223.155 244.81 224.964 243C226.869 241.19 229.107 240.286 231.679 240.286C234.25 240.286 236.44 241.19 238.25 243C240.155 244.81 241.107 247 241.107 249.571C241.107 252.143 240.155 254.381 238.25 256.286C236.44 258.095 234.25 259 231.679 259ZM252.821 344V244H268.821V344H252.821ZM301.25 344V307.429H317.25V344H301.25ZM301.25 307.429C301.25 301.714 300.583 297.333 299.25 294.286C297.917 291.143 296.06 288.952 293.679 287.714C291.393 286.476 288.726 285.857 285.679 285.857C280.25 285.762 276.06 287.524 273.107 291.143C270.25 294.762 268.821 299.952 268.821 306.714H262.679C262.679 299.19 263.774 292.762 265.964 287.429C268.25 282 271.44 277.905 275.536 275.143C279.631 272.286 284.488 270.857 290.107 270.857C295.726 270.857 300.583 272 304.679 274.286C308.774 276.571 311.869 280.143 313.964 285C316.155 289.762 317.25 296 317.25 303.714V307.429H301.25ZM360.597 345.714C353.454 345.714 347.073 344.143 341.454 341C335.93 337.762 331.597 333.333 328.454 327.714C325.311 322.095 323.74 315.619 323.74 308.286C323.74 300.952 325.264 294.476 328.311 288.857C331.454 283.238 335.788 278.857 341.311 275.714C346.835 272.476 353.169 270.857 360.311 270.857C367.454 270.857 373.788 272.476 379.311 275.714C384.835 278.857 389.121 283.238 392.169 288.857C395.311 294.476 396.883 300.952 396.883 308.286C396.883 315.619 395.359 322.095 392.311 327.714C389.264 333.333 384.978 337.762 379.454 341C373.93 344.143 367.645 345.714 360.597 345.714ZM360.597 331C364.502 331 367.978 330.048 371.026 328.143C374.073 326.143 376.454 323.476 378.169 320.143C379.883 316.714 380.74 312.762 380.74 308.286C380.74 303.81 379.835 299.905 378.026 296.571C376.311 293.143 373.93 290.476 370.883 288.571C367.835 286.571 364.311 285.571 360.311 285.571C356.311 285.571 352.788 286.524 349.74 288.429C346.692 290.333 344.311 293 342.597 296.429C340.883 299.857 340.026 303.81 340.026 308.286C340.026 312.762 340.883 316.714 342.597 320.143C344.407 323.476 346.835 326.143 349.883 328.143C353.026 330.048 356.597 331 360.597 331Z" fill="#F55825"/>
<path d="M-37.0335 232V132H-19.3192L12.1094 178.286L43.2522 132H61.1094V232H44.538V158.143L11.9665 206.286L-20.4621 158.429V232H-37.0335ZM75.1864 196.429V182.571H118.044V196.429H75.1864ZM132.063 232V132H163.491C173.301 132 181.967 134.143 189.491 138.429C197.11 142.619 203.063 148.476 207.348 156C211.729 163.524 213.92 172.19 213.92 182C213.92 191.714 211.729 200.333 207.348 207.857C203.063 215.381 197.11 221.286 189.491 225.571C181.967 229.857 173.301 232 163.491 232H132.063ZM148.634 216.571H163.491C168.158 216.571 172.539 215.714 176.634 214C180.729 212.19 184.301 209.714 187.348 206.571C190.396 203.429 192.777 199.762 194.491 195.571C196.205 191.381 197.063 186.857 197.063 182C197.063 177.143 196.205 172.619 194.491 168.429C192.777 164.238 190.396 160.571 187.348 157.429C184.301 154.286 180.729 151.857 176.634 150.143C172.539 148.333 168.158 147.429 163.491 147.429H148.634V216.571ZM223.679 232V160.571H239.536V232H223.679ZM231.679 147C229.107 147 226.869 146.095 224.964 144.286C223.155 142.381 222.25 140.143 222.25 137.571C222.25 135 223.155 132.81 224.964 131C226.869 129.19 229.107 128.286 231.679 128.286C234.25 128.286 236.44 129.19 238.25 131C240.155 132.81 241.107 135 241.107 137.571C241.107 140.143 240.155 142.381 238.25 144.286C236.44 146.095 234.25 147 231.679 147ZM252.821 232V132H268.821V232H252.821ZM301.25 232V195.429H317.25V232H301.25ZM301.25 195.429C301.25 189.714 300.583 185.333 299.25 182.286C297.917 179.143 296.06 176.952 293.679 175.714C291.393 174.476 288.726 173.857 285.679 173.857C280.25 173.762 276.06 175.524 273.107 179.143C270.25 182.762 268.821 187.952 268.821 194.714H262.679C262.679 187.19 263.774 180.762 265.964 175.429C268.25 170 271.44 165.905 275.536 163.143C279.631 160.286 284.488 158.857 290.107 158.857C295.726 158.857 300.583 160 304.679 162.286C308.774 164.571 311.869 168.143 313.964 173C316.155 177.762 317.25 184 317.25 191.714V195.429H301.25ZM360.597 233.714C353.454 233.714 347.073 232.143 341.454 229C335.93 225.762 331.597 221.333 328.454 215.714C325.311 210.095 323.74 203.619 323.74 196.286C323.74 188.952 325.264 182.476 328.311 176.857C331.454 171.238 335.788 166.857 341.311 163.714C346.835 160.476 353.169 158.857 360.311 158.857C367.454 158.857 373.788 160.476 379.311 163.714C384.835 166.857 389.121 171.238 392.169 176.857C395.311 182.476 396.883 188.952 396.883 196.286C396.883 203.619 395.359 210.095 392.311 215.714C389.264 221.333 384.978 225.762 379.454 229C373.93 232.143 367.645 233.714 360.597 233.714ZM360.597 219C364.502 219 367.978 218.048 371.026 216.143C374.073 214.143 376.454 211.476 378.169 208.143C379.883 204.714 380.74 200.762 380.74 196.286C380.74 191.81 379.835 187.905 378.026 184.571C376.311 181.143 373.93 178.476 370.883 176.571C367.835 174.571 364.311 173.571 360.311 173.571C356.311 173.571 352.788 174.524 349.74 176.429C346.692 178.333 344.311 181 342.597 184.429C340.883 187.857 340.026 191.81 340.026 196.286C340.026 200.762 340.883 204.714 342.597 208.143C344.407 211.476 346.835 214.143 349.883 216.143C353.026 218.048 356.597 219 360.597 219Z" fill="#F55825"/>
<path d="M-37.0335 120V20H-19.3192L12.1094 66.2857L43.2522 20H61.1094V120H44.538V46.1429L11.9665 94.2857L-20.4621 46.4286V120H-37.0335ZM75.1864 84.4286V70.5714H118.044V84.4286H75.1864ZM132.063 120V20H163.491C173.301 20 181.967 22.1428 189.491 26.4286C197.11 30.619 203.063 36.4762 207.348 44C211.729 51.5238 213.92 60.1905 213.92 70C213.92 79.7143 211.729 88.3333 207.348 95.8571C203.063 103.381 197.11 109.286 189.491 113.571C181.967 117.857 173.301 120 163.491 120H132.063ZM148.634 104.571H163.491C168.158 104.571 172.539 103.714 176.634 102C180.729 100.19 184.301 97.7143 187.348 94.5714C190.396 91.4286 192.777 87.7619 194.491 83.5714C196.205 79.3809 197.063 74.8571 197.063 70C197.063 65.1429 196.205 60.619 194.491 56.4286C192.777 52.2381 190.396 48.5714 187.348 45.4286C184.301 42.2857 180.729 39.8571 176.634 38.1429C172.539 36.3333 168.158 35.4286 163.491 35.4286H148.634V104.571ZM223.679 120V48.5714H239.536V120H223.679ZM231.679 35C229.107 35 226.869 34.0952 224.964 32.2857C223.155 30.3809 222.25 28.1429 222.25 25.5714C222.25 23 223.155 20.8095 224.964 19C226.869 17.1905 229.107 16.2857 231.679 16.2857C234.25 16.2857 236.44 17.1905 238.25 19C240.155 20.8095 241.107 23 241.107 25.5714C241.107 28.1429 240.155 30.3809 238.25 32.2857C236.44 34.0952 234.25 35 231.679 35ZM252.821 120V20H268.821V120H252.821ZM301.25 120V83.4286H317.25V120H301.25ZM301.25 83.4286C301.25 77.7143 300.583 73.3333 299.25 70.2857C297.917 67.1429 296.06 64.9524 293.679 63.7143C291.393 62.4762 288.726 61.8571 285.679 61.8571C280.25 61.7619 276.06 63.5238 273.107 67.1429C270.25 70.7619 268.821 75.9524 268.821 82.7143H262.679C262.679 75.1905 263.774 68.7619 265.964 63.4286C268.25 58 271.44 53.9048 275.536 51.1429C279.631 48.2857 284.488 46.8571 290.107 46.8571C295.726 46.8571 300.583 48 304.679 50.2857C308.774 52.5714 311.869 56.1429 313.964 61C316.155 65.7619 317.25 72 317.25 79.7143V83.4286H301.25ZM360.597 121.714C353.454 121.714 347.073 120.143 341.454 117C335.93 113.762 331.597 109.333 328.454 103.714C325.311 98.0952 323.74 91.619 323.74 84.2857C323.74 76.9524 325.264 70.4762 328.311 64.8571C331.454 59.2381 335.788 54.8571 341.311 51.7143C346.835 48.4762 353.169 46.8571 360.311 46.8571C367.454 46.8571 373.788 48.4762 379.311 51.7143C384.835 54.8571 389.121 59.2381 392.169 64.8571C395.311 70.4762 396.883 76.9524 396.883 84.2857C396.883 91.619 395.359 98.0952 392.311 103.714C389.264 109.333 384.978 113.762 379.454 117C373.93 120.143 367.645 121.714 360.597 121.714ZM360.597 107C364.502 107 367.978 106.048 371.026 104.143C374.073 102.143 376.454 99.4762 378.169 96.1429C379.883 92.7143 380.74 88.7619 380.74 84.2857C380.74 79.8095 379.835 75.9048 378.026 72.5714C376.311 69.1429 373.93 66.4762 370.883 64.5714C367.835 62.5714 364.311 61.5714 360.311 61.5714C356.311 61.5714 352.788 62.5238 349.74 64.4286C346.692 66.3333 344.311 69 342.597 72.4286C340.883 75.8571 340.026 79.8095 340.026 84.2857C340.026 88.7619 340.883 92.7143 342.597 96.1429C344.407 99.4762 346.835 102.143 349.883 104.143C353.026 106.048 356.597 107 360.597 107Z" fill="#F55825"/>
</g>
</svg>
