<svg width="140" height="140" viewBox="0 0 140 140" fill="none" xmlns="http://www.w3.org/2000/svg">
<g clip-path="url(#clip0_1424_6000)">
<rect width="140" height="140" rx="32.6667" fill="#F55825"/>
<path opacity="0.2" d="M32.954 41.8295L67.6385 21.2355C69.096 20.3701 70.9082 20.3631 72.3724 21.2172L109.685 42.9828C111.118 43.8191 112 45.3539 112 47.0137V89.4585C112 91.1331 111.103 92.6794 109.649 93.5103L105.88 95.6641C104.849 96.2529 104.661 97.6605 105.5 98.4998C105.918 98.9174 106.104 99.5134 105.998 100.095L104.905 106.109C104.361 109.099 101.149 110.78 98.3821 109.522L93.554 107.328C91.9824 106.613 90.1449 106.825 88.7769 107.878L-111.91 262.313C-114.684 264.448 -118.735 262.881 -119.35 259.434L-136.406 163.831C-136.76 161.844 -135.797 159.854 -134.019 158.9L-69.3837 124.206C-69.1285 124.069 -68.8865 123.908 -68.661 123.727L32.4067 42.2097C32.5799 42.0701 32.7627 41.943 32.954 41.8295Z" fill="url(#paint0_linear_1424_6000)"/>
<g clip-path="url(#clip1_1424_6000)">
<path d="M72.9503 26.13C73.056 26.17 73.1618 26.2101 73.2674 26.2503C73.3263 26.2726 73.3852 26.295 73.4459 26.318C73.6701 26.4078 73.8784 26.5159 74.0882 26.635C74.1521 26.6708 74.1521 26.6708 74.2174 26.7072C74.6813 26.9686 75.1364 27.2448 75.592 27.5202C75.8988 27.7054 76.2076 27.8869 76.5174 28.067C76.5672 28.096 76.617 28.1249 76.6683 28.1548C76.772 28.2151 76.8757 28.2754 76.9794 28.3357C77.2806 28.511 77.5815 28.6868 77.8822 28.8629C77.9135 28.8812 77.9448 28.8995 77.9771 28.9184C78.4641 29.2037 78.9484 29.4933 79.4317 29.7848C79.8759 30.0519 80.3244 30.3111 80.7739 30.5692C81.0826 30.7466 81.3898 30.9259 81.6943 31.1104C82.0294 31.3128 82.3676 31.51 82.7055 31.7076C83.1965 31.9949 83.6867 32.2834 84.1758 32.5739C84.6523 32.8567 85.1296 33.1378 85.6078 33.4177C86.143 33.7309 86.677 34.0461 87.2101 34.3627C87.6631 34.6315 88.1175 34.8977 88.5722 35.1636C89.004 35.4161 89.4338 35.6717 89.8621 35.93C90.358 36.2291 90.8581 36.5201 91.3602 36.8085C91.6689 36.9859 91.9761 37.1652 92.2806 37.3497C92.6157 37.5521 92.9539 37.7492 93.2918 37.9469C93.7828 38.2342 94.273 38.5227 94.7621 38.8131C95.2386 39.096 95.7159 39.3771 96.1941 39.657C96.7294 39.9702 97.2634 40.2855 97.7967 40.6021C98.2163 40.851 98.6369 41.0982 99.058 41.3446C99.5933 41.6579 100.127 41.9732 100.661 42.2898C101.08 42.5387 101.501 42.7859 101.922 43.0323C102.516 43.3798 103.108 43.7295 103.7 44.0809C103.907 44.2042 104.115 44.327 104.324 44.4489C104.448 44.5216 104.572 44.5946 104.696 44.6675C104.782 44.718 104.869 44.7681 104.955 44.8183C106.491 45.7213 107.648 47.0297 108.107 48.771C108.318 49.6357 108.311 50.5194 108.309 51.4035C108.308 51.5963 108.309 51.789 108.309 51.9817C108.31 52.3185 108.31 52.6552 108.309 52.9919C108.309 53.4927 108.309 53.9935 108.31 54.4943C108.31 55.3889 108.31 56.2836 108.31 57.1783C108.31 57.9612 108.309 58.7442 108.31 59.5271C108.31 59.6052 108.31 59.6052 108.31 59.6848C108.31 59.896 108.31 60.1072 108.31 60.3184C108.31 62.2979 108.31 64.2774 108.309 66.2569C108.308 68.0139 108.308 69.7708 108.309 71.5278C108.31 73.5038 108.31 75.4798 108.31 77.4557C108.31 77.6665 108.31 77.8774 108.31 78.0882C108.31 78.166 108.31 78.166 108.31 78.2454C108.309 79.0277 108.31 79.81 108.31 80.5923C108.31 81.4822 108.31 82.3721 108.309 83.262C108.309 83.7594 108.309 84.2569 108.31 84.7543C108.31 85.0873 108.31 85.4202 108.309 85.7531C108.309 85.9424 108.309 86.1316 108.309 86.3209C108.315 88.3397 108.315 88.3397 107.973 89.2835C107.957 89.3275 107.942 89.3715 107.926 89.4169C107.616 90.2737 107.122 90.9813 106.499 91.6424C106.468 91.677 106.436 91.7116 106.404 91.7472C105.789 92.4013 104.964 92.8072 104.193 93.245C103.989 93.3619 103.787 93.4832 103.585 93.6053C103.25 93.8077 102.912 94.0049 102.574 94.2026C102.095 94.4827 101.617 94.7633 101.14 95.0458C101.056 95.0956 100.972 95.1454 100.887 95.1952C100.505 95.4217 100.126 95.6532 99.7484 95.8871C100.043 96.5779 100.341 97.2668 100.645 97.9536C100.708 98.0976 100.772 98.2418 100.835 98.386C100.876 98.4796 100.918 98.5733 100.959 98.6669C100.978 98.709 100.996 98.7511 101.015 98.7945C101.147 99.0915 101.289 99.3822 101.436 99.6716C101.482 99.6499 101.528 99.6282 101.575 99.6059C101.745 99.5256 101.916 99.4456 102.086 99.3657C102.16 99.331 102.233 99.2963 102.307 99.2615C102.413 99.2116 102.519 99.1619 102.625 99.1122C102.658 99.0966 102.691 99.0809 102.725 99.0648C102.959 98.9556 102.959 98.9556 103.073 98.9556C103.006 99.489 102.923 100.018 102.829 100.547C102.815 100.627 102.801 100.706 102.787 100.785C102.75 100.998 102.712 101.211 102.674 101.424C102.635 101.648 102.595 101.872 102.556 102.096C102.489 102.472 102.423 102.848 102.356 103.224C102.263 103.752 102.17 104.281 102.076 104.81C101.951 105.52 101.826 106.23 101.7 106.939C101.687 107.016 101.673 107.092 101.66 107.168C101.651 107.222 101.651 107.222 101.641 107.277C101.635 107.311 101.629 107.346 101.622 107.382C101.605 107.479 101.588 107.577 101.57 107.675C101.549 107.792 101.529 107.909 101.511 108.027C101.502 108.078 101.494 108.129 101.485 108.182C101.478 108.227 101.471 108.271 101.464 108.317C101.454 108.35 101.445 108.383 101.436 108.417C101.402 108.434 101.369 108.451 101.334 108.468C101.206 108.416 101.084 108.361 100.96 108.3C100.922 108.282 100.883 108.264 100.844 108.245C100.717 108.184 100.591 108.123 100.464 108.062C100.376 108.02 100.287 107.977 100.199 107.935C100.017 107.848 99.8358 107.761 99.6542 107.674C99.3085 107.508 98.9615 107.345 98.6143 107.182C98.4716 107.115 98.329 107.048 98.1864 106.981C98.0795 106.93 97.9726 106.88 97.8657 106.83C97.5408 106.677 97.2159 106.524 96.891 106.371C96.7825 106.32 96.674 106.269 96.5655 106.218C96.2366 106.063 95.9077 105.908 95.5789 105.754C94.6348 105.308 93.6894 104.866 92.742 104.428C92.742 104.377 92.742 104.326 92.742 104.274C92.849 104.194 92.849 104.194 92.998 104.11C93.0517 104.079 93.1055 104.048 93.1609 104.016C93.2178 103.984 93.2747 103.952 93.3334 103.92C93.3889 103.888 93.4445 103.856 93.5017 103.823C93.6094 103.762 93.7172 103.701 93.8252 103.64C93.9448 103.572 94.0634 103.503 94.1818 103.433C94.3274 103.354 94.3274 103.354 94.4297 103.354C94.0369 102.464 93.6436 101.574 93.2343 100.691C93.2066 100.631 93.179 100.572 93.1505 100.51C93.125 100.455 93.0995 100.401 93.0733 100.344C93.0512 100.297 93.029 100.249 93.0063 100.2C92.9453 100.072 92.9453 100.072 92.8443 99.9273C92.7877 99.9615 92.7311 99.9957 92.6727 100.031C92.1198 100.364 91.5643 100.693 91.0071 101.019C90.4962 101.317 89.9866 101.618 89.4777 101.921C89.0247 102.189 88.5703 102.456 88.1155 102.722C87.6838 102.974 87.2539 103.23 86.8256 103.488C86.3297 103.787 85.8297 104.078 85.3275 104.366C85.0188 104.544 84.7116 104.723 84.4071 104.908C84.072 105.11 83.7338 105.307 83.3959 105.505C82.9049 105.792 82.4147 106.081 81.9256 106.371C81.4181 106.672 80.9093 106.972 80.3999 107.27C79.953 107.531 79.507 107.794 79.0617 108.059C78.5541 108.36 78.0454 108.659 77.536 108.957C77.0891 109.219 76.6431 109.482 76.1978 109.746C76.0271 109.848 75.8563 109.949 75.6856 110.05C75.5624 110.123 75.4392 110.196 75.3161 110.269C73.4316 111.389 73.4316 111.389 72.9503 111.485C72.9503 105.477 72.9503 99.4691 72.9503 93.2789C73.254 93.1439 73.5578 93.0089 73.8708 92.8698C74.0964 92.7443 74.3163 92.6181 74.5356 92.483C74.6243 92.4293 74.7131 92.3758 74.8019 92.3223C74.8623 92.2859 74.9226 92.2495 74.9829 92.213C75.2967 92.0234 75.6144 91.8407 75.9325 91.6583C76.3803 91.401 76.8263 91.1409 77.2706 90.8775C77.6549 90.6497 78.0401 90.4234 78.4256 90.1976C78.4568 90.1793 78.488 90.161 78.5202 90.1422C78.6796 90.0488 78.839 89.9555 78.9984 89.8621C79.2785 89.698 79.5586 89.5338 79.8388 89.3695C79.9931 89.279 80.1475 89.1886 80.3019 89.0981C80.3637 89.0618 80.4255 89.0256 80.4872 88.9894C80.858 88.772 80.858 88.772 80.9507 88.7177C81.0125 88.6815 81.0743 88.6452 81.1361 88.609C81.2904 88.5186 81.4447 88.4281 81.599 88.3377C81.8795 88.1733 82.16 88.0088 82.4404 87.8444C83.0926 87.4618 83.7451 87.0797 84.3983 86.6989C85.0494 86.3194 85.6993 85.9379 86.3493 85.5565C86.0634 84.8668 85.7556 84.1881 85.4416 83.5108C85.1404 82.8613 84.8424 82.2107 84.5509 81.5568C84.335 81.0732 84.1152 80.5914 83.8946 80.1099C83.6177 79.5059 83.3438 78.9007 83.0729 78.294C82.8551 77.8071 82.6337 77.3218 82.4115 76.8369C82.1346 76.2329 81.8607 75.6277 81.5898 75.021C81.372 74.534 81.1506 74.0488 80.9283 73.5638C80.6515 72.9599 80.3777 72.3548 80.1068 71.7481C79.9052 71.2974 79.7006 70.8483 79.4948 70.3995C79.2203 69.8006 78.9469 69.2013 78.6781 68.5999C78.652 68.5418 78.6259 68.4837 78.599 68.4239C78.5755 68.3711 78.5521 68.3184 78.5279 68.2641C78.4971 68.1952 78.4971 68.1952 78.4658 68.1249C78.4224 68.015 78.4224 68.015 78.4224 67.9127C78.2951 68.0279 78.2228 68.1399 78.147 68.2934C78.1241 68.3394 78.1012 68.3854 78.0776 68.4328C78.0409 68.5076 78.0409 68.5076 78.0035 68.5839C77.9648 68.6619 77.9648 68.6619 77.9253 68.7414C77.8424 68.9082 77.76 69.0753 77.6777 69.2424C77.5701 69.4598 77.4624 69.6771 77.3546 69.8944C77.3281 69.9479 77.3016 70.0014 77.2742 70.0565C77.0908 70.4253 76.9017 70.7906 76.7086 71.1543C76.5235 71.5033 76.3463 71.8559 76.171 72.21C75.8858 72.7858 75.596 73.3587 75.2936 73.9258C75.2266 74.0517 75.1615 74.1777 75.0982 74.3054C74.5888 74.3265 74.0845 74.2703 73.5783 74.2208C73.4283 74.2062 73.2783 74.1921 73.1283 74.178C73.0331 74.1689 72.9379 74.1597 72.8428 74.1505C72.7978 74.1463 72.7529 74.1421 72.7066 74.1378C72.3936 74.1067 72.3936 74.1067 72.3366 74.0497C72.3279 73.8903 72.3226 73.7319 72.3194 73.5724C72.3182 73.5216 72.317 73.4708 72.3158 73.4185C72.3118 73.2468 72.3083 73.0751 72.3048 72.9034C72.3035 72.8434 72.3022 72.7834 72.3008 72.7216C72.2757 71.5638 72.2603 70.406 72.2487 69.248C72.2468 69.0572 72.2448 68.8665 72.2428 68.6757C72.2424 68.6377 72.242 68.5998 72.2416 68.5607C72.2354 67.9916 72.2243 67.4227 72.2103 66.8537C72.189 65.9755 72.1757 65.0975 72.1749 64.2191C72.1749 64.1836 72.1749 64.1482 72.1748 64.1116C72.1732 61.7147 72.473 59.721 73.9731 57.7866C75.1486 57.8179 76.3237 57.8565 77.4987 57.9045C77.5561 57.9069 77.5561 57.9069 77.6147 57.9092C77.9774 57.924 78.34 57.9389 78.7027 57.9541C79.1607 57.9732 79.6187 57.9918 80.0768 58.0097C80.4029 58.0225 80.7289 58.0359 81.055 58.0497C81.2485 58.0579 81.4419 58.0658 81.6354 58.0732C81.8492 58.0813 82.0629 58.0905 82.2766 58.0999C82.3402 58.1021 82.4038 58.1043 82.4693 58.1066C82.5272 58.1094 82.585 58.1121 82.6446 58.1149C82.7201 58.118 82.7201 58.118 82.7972 58.1211C82.9417 58.1482 82.9874 58.1835 83.0763 58.2981C83.127 58.3891 83.127 58.3891 83.1722 58.4918C83.1896 58.5309 83.2069 58.57 83.2248 58.6102C83.2433 58.6527 83.2618 58.6953 83.2809 58.7392C83.3007 58.784 83.3205 58.8289 83.3409 58.8751C83.4065 59.0235 83.4715 59.1722 83.5366 59.3209C83.5826 59.4254 83.6286 59.5298 83.6747 59.6342C83.7699 59.8501 83.8649 60.066 83.9597 60.282C84.0883 60.575 84.2174 60.8677 84.3468 61.1604C84.3666 61.2051 84.3864 61.2498 84.4067 61.2958C84.4463 61.3855 84.486 61.4751 84.5256 61.5647C84.5855 61.7001 84.6453 61.8356 84.7051 61.9711C85.0187 62.6816 85.3342 63.3912 85.65 64.1007C85.9749 64.8307 86.2967 65.562 86.6171 66.2939C86.9231 66.993 87.235 67.6894 87.5493 68.3848C87.8203 68.9848 88.0855 69.5868 88.3454 70.1916C88.5768 70.7281 88.8162 71.2607 89.0567 71.793C89.3318 72.4021 89.605 73.0118 89.8717 73.6245C90.1553 74.2758 90.4427 74.9254 90.7315 75.5743C91.1228 76.4534 91.5126 77.3331 91.9011 78.2134C92.1465 78.7692 92.3927 79.3247 92.6398 79.8798C92.9583 79.3424 92.9178 78.5562 92.915 77.9503C92.9151 77.8679 92.9154 77.7855 92.9157 77.7032C92.9163 77.4795 92.916 77.2559 92.9155 77.0322C92.9152 76.7899 92.9157 76.5477 92.9161 76.3054C92.9168 75.8319 92.9167 75.3583 92.9162 74.8848C92.9159 74.4996 92.9158 74.1145 92.916 73.7294C92.916 73.6744 92.916 73.6194 92.9161 73.5628C92.9161 73.4511 92.9162 73.3394 92.9162 73.2277C92.9167 72.182 92.9162 71.1364 92.9153 70.0908C92.9146 69.1951 92.9148 68.2995 92.9155 67.4038C92.9163 66.3618 92.9166 65.3198 92.9161 64.2778C92.9161 64.1665 92.916 64.0552 92.916 63.9439C92.916 63.8618 92.916 63.8618 92.9159 63.778C92.9158 63.3937 92.916 63.0094 92.9164 62.6251C92.9168 62.1563 92.9167 61.6874 92.9159 61.2185C92.9155 60.9796 92.9153 60.7408 92.9158 60.5019C92.9163 60.2826 92.916 60.0634 92.9152 59.8441C92.915 59.7654 92.9151 59.6867 92.9155 59.608C92.9187 58.89 92.8483 58.158 92.6078 57.4766C92.595 57.4393 92.5821 57.4021 92.5689 57.3637C92.0122 55.8192 90.9144 54.7441 89.5209 53.9381C89.3546 53.8417 89.1888 53.7444 89.0231 53.647C88.7724 53.4996 88.5216 53.3525 88.2706 53.2057C87.925 53.0036 87.5796 52.8012 87.2343 52.5987C87.0799 52.5082 86.9256 52.4178 86.7713 52.3273C86.7095 52.2911 86.6477 52.2548 86.5859 52.2186C86.5553 52.2007 86.5247 52.1827 86.4932 52.1643C81.9048 49.4745 81.9048 49.4745 77.3165 46.7848C77.2859 46.7669 77.2553 46.749 77.2238 46.7305C77.162 46.6942 77.1001 46.658 77.0383 46.6217C76.8843 46.5315 76.7304 46.4412 76.5764 46.351C76.292 46.1844 76.0077 46.0177 75.7236 45.8506C74.8994 45.3646 74.8994 45.3646 74.069 44.8894C74.0218 44.8627 74.0218 44.8627 73.9737 44.8356C73.8342 44.7574 73.6939 44.6827 73.5508 44.6115C73.5003 44.5861 73.4498 44.5607 73.3977 44.5346C73.3553 44.5144 73.3128 44.4942 73.2691 44.4735C73.1065 44.3512 73.0191 44.2181 72.9503 44.0296C72.9213 43.8046 72.9244 43.5817 72.927 43.3552C72.927 43.2878 72.927 43.2204 72.9269 43.1509C72.9269 42.967 72.9281 42.7831 72.9295 42.5991C72.9308 42.4066 72.9309 42.214 72.9312 42.0215C72.9318 41.6573 72.9335 41.293 72.9355 40.9288C72.9378 40.514 72.9389 40.0992 72.94 39.6843C72.9421 38.8314 72.9457 37.9784 72.9503 37.1255C73.1056 37.0437 73.261 36.9619 73.4164 36.8801C73.4601 36.8571 73.5037 36.8341 73.5488 36.8104C74.5292 36.2943 75.5149 35.7887 76.5014 35.2844C76.5515 35.2588 76.6015 35.2332 76.6531 35.2068C76.7985 35.1325 76.9439 35.0582 77.0893 34.9839C77.1349 34.9606 77.1805 34.9373 77.2275 34.9132C77.4202 34.8148 77.613 34.7169 77.8075 34.6221C77.8634 34.5949 77.9192 34.5677 77.9767 34.5396C78.0463 34.5063 78.0463 34.5063 78.1174 34.4723C78.2258 34.4228 78.2258 34.4228 78.269 34.3127C78.226 34.2997 78.183 34.2867 78.1387 34.2734C77.9465 34.2048 77.7706 34.1169 77.5914 34.0206C77.5563 34.002 77.5212 33.9834 77.485 33.9642C77.3712 33.9037 77.2575 33.8429 77.1439 33.7821C77.0645 33.7398 76.9851 33.6976 76.9058 33.6553C76.4444 33.4096 75.9845 33.1613 75.5265 32.9095C75.2468 32.7561 74.9658 32.6054 74.6839 32.4562C74.6475 32.4369 74.611 32.4176 74.5735 32.3978C74.3929 32.3021 74.2121 32.2067 74.0312 32.1116C73.9642 32.0762 73.8971 32.0407 73.8301 32.0053C73.7713 31.9744 73.7126 31.9435 73.6521 31.9116C73.6076 31.8867 73.6076 31.8867 73.5623 31.8613C73.4874 31.8207 73.4107 31.7834 73.3332 31.7479C72.9787 31.5696 72.9787 31.5696 72.9038 31.3862C72.8872 31.2458 72.8869 31.1134 72.8922 30.9721C72.8921 30.9197 72.8921 30.8673 72.892 30.8133C72.8923 30.6405 72.8963 30.468 72.9003 30.2953C72.9013 30.1753 72.902 30.0554 72.9025 29.9354C72.9045 29.6201 72.9095 29.3048 72.9151 28.9895C72.9204 28.6677 72.9227 28.3458 72.9253 28.0239C72.9308 27.3925 72.9395 26.7613 72.9503 26.13Z" fill="white"/>
<path d="M69.5742 25.9766C69.5742 31.9678 69.5742 37.959 69.5742 44.1318C69.165 44.2852 69.165 44.2852 68.9731 44.353C68.1849 44.6324 67.4866 45.0518 66.7708 45.4781C66.4266 45.683 66.081 45.8856 65.7354 46.088C65.6722 46.125 65.6091 46.162 65.5459 46.1989C65.4182 46.2738 65.2904 46.3487 65.1626 46.4235C64.8824 46.5876 64.6023 46.7518 64.3222 46.916C64.1678 47.0065 64.0135 47.097 63.8591 47.1875C63.7973 47.2237 63.7355 47.26 63.6737 47.2962C60.6148 49.0893 57.5559 50.8825 54.4043 52.73C54.3584 52.7569 54.3584 52.7569 54.3116 52.7843C54.2498 52.8206 54.1879 52.8568 54.1261 52.8931C53.9723 52.9832 53.8185 53.0734 53.6648 53.1638C53.3788 53.3318 53.0926 53.4991 52.8049 53.6642C52.6711 53.741 52.5375 53.8182 52.4039 53.8955C52.341 53.9317 52.278 53.9678 52.2148 54.0036C51.7959 54.2417 51.4252 54.5054 51.0609 54.8204C50.9937 54.8766 50.9937 54.8766 50.9251 54.9339C50.1447 55.5895 49.6048 56.492 49.2742 57.4478C49.2603 57.4869 49.2465 57.5259 49.2323 57.5662C48.8982 58.6051 48.942 59.7005 48.9448 60.7774C48.9453 61.0155 48.9448 61.2536 48.9445 61.4916C48.944 61.9566 48.9444 62.4216 48.945 62.8865C48.9457 63.4289 48.9456 63.9712 48.9455 64.5136C48.9453 65.4816 48.9459 66.4496 48.9469 67.4176C48.9479 68.3554 48.9483 69.2932 48.948 70.231C48.9477 71.2543 48.9477 72.2777 48.9483 73.301C48.9483 73.4103 48.9484 73.5195 48.9484 73.6287C48.9485 73.6825 48.9485 73.7362 48.9485 73.7915C48.9487 74.169 48.9487 74.5465 48.9486 74.9239C48.9485 75.3841 48.9488 75.8443 48.9495 76.3045C48.9499 76.539 48.9501 76.7735 48.9499 77.008C48.9496 77.2231 48.9499 77.4382 48.9506 77.6533C48.9507 77.7306 48.9507 77.808 48.9505 77.8853C48.9461 79.6209 49.4892 81.2035 50.6842 82.4782C50.7911 82.5856 50.8994 82.691 51.0098 82.7948C51.0435 82.8286 51.0773 82.8623 51.1121 82.8971C50.696 83.2387 50.2793 83.5772 49.8465 83.8976C49.6361 84.0541 49.4298 84.2158 49.223 84.377C48.9583 84.5835 48.6934 84.7896 48.4271 84.9939C48.1621 85.1974 47.8981 85.4023 47.6344 85.6076C47.2087 85.9391 46.7812 86.2684 46.3531 86.5969C46.0293 86.8456 45.7064 87.0956 45.3842 87.3464C44.9584 87.6779 44.531 88.0072 44.1029 88.3357C43.779 88.5844 43.4562 88.8344 43.134 89.0852C42.7082 89.4168 42.2808 89.746 41.8526 90.0745C41.5288 90.3232 41.2059 90.5732 40.8838 90.8241C40.458 91.1556 40.0305 91.4848 39.6024 91.8133C39.2347 92.0958 38.8682 92.3799 38.5027 92.6653C38.4292 92.7226 38.3554 92.7796 38.2814 92.8363C38.2079 92.8938 38.1359 92.9532 38.0653 93.0143C38.0306 93.0433 37.9959 93.0723 37.9601 93.1022C37.9297 93.1288 37.8993 93.1554 37.868 93.1827C37.7641 93.2277 37.7641 93.2277 37.6163 93.1943C36.8533 92.864 36.1141 92.3705 35.5139 91.7957C35.4731 91.7589 35.4323 91.722 35.3902 91.6841C34.4033 90.7583 33.6645 89.2906 33.6169 87.9263C33.6149 87.7574 33.6146 87.5886 33.6148 87.4197C33.6147 87.3545 33.6145 87.2894 33.6144 87.2223C33.6141 87.0412 33.6141 86.8602 33.6141 86.6792C33.6141 86.4823 33.6138 86.2854 33.6136 86.0885C33.6131 85.698 33.6129 85.3074 33.6128 84.9168C33.6126 84.449 33.6122 83.9811 33.6117 83.5133C33.6106 82.3825 33.6101 81.2517 33.6097 80.1209C33.6094 79.5859 33.6092 79.0508 33.6089 78.5158C33.608 76.6839 33.6072 74.8521 33.6069 73.0203C33.6068 72.9053 33.6068 72.7903 33.6068 72.6753C33.6068 72.6183 33.6068 72.5612 33.6067 72.5025C33.6067 72.2136 33.6066 71.9246 33.6066 71.6357C33.6065 71.5784 33.6065 71.521 33.6065 71.462C33.6061 69.6034 33.6049 67.7448 33.6033 65.8862C33.6015 63.9208 33.6005 61.9554 33.6003 59.99C33.6003 59.7742 33.6003 59.5583 33.6002 59.3425C33.6002 59.2894 33.6002 59.2362 33.6002 59.1814C33.6001 58.3269 33.5993 57.4723 33.5983 56.6178C33.5972 55.7584 33.5969 54.899 33.5974 54.0397C33.5977 53.5295 33.5974 53.0193 33.5963 52.5091C33.5956 52.1677 33.5956 51.8264 33.5963 51.4851C33.5967 51.291 33.5967 51.0968 33.5958 50.9027C33.5876 48.9587 34.0384 47.3495 35.4128 45.9182C35.9534 45.3754 36.6 45.0033 37.2605 44.6248C37.4904 44.4925 37.7182 44.3567 37.9463 44.2213C38.414 43.9446 38.8829 43.6699 39.3518 43.3954C39.8607 43.0974 40.3682 42.7973 40.8753 42.4963C41.3261 42.2289 41.7781 41.9636 42.2305 41.6989C42.6774 41.4373 43.1234 41.1743 43.5687 40.9099C44.0762 40.6086 44.585 40.3093 45.0944 40.0112C45.5983 39.7162 46.1009 39.4192 46.603 39.1211C47.056 38.8523 47.5104 38.586 47.9651 38.3202C48.3968 38.0676 48.8266 37.8121 49.255 37.5537C49.7508 37.2547 50.2509 36.9637 50.753 36.6753C51.0618 36.4979 51.3689 36.3186 51.6735 36.1341C52.0086 35.9316 52.3468 35.7345 52.6847 35.5368C53.1756 35.2495 53.6659 34.9611 54.155 34.6706C54.6625 34.3693 55.1713 34.0701 55.6807 33.7719C56.1276 33.5103 56.5736 33.2473 57.0189 32.983C57.5265 32.6816 58.0352 32.3824 58.5446 32.0843C58.9915 31.8227 59.4376 31.5596 59.8828 31.2953C60.3904 30.994 60.8991 30.6947 61.4085 30.3966C61.9125 30.1016 62.4151 29.8046 62.9171 29.5064C63.3701 29.2377 63.8245 28.9714 64.2792 28.7056C64.711 28.453 65.1408 28.1975 65.5691 27.9391C66.1708 27.5765 66.7784 27.2248 67.3881 26.8758C67.5074 26.807 67.626 26.7373 67.7443 26.6666C68.1523 26.4238 68.5659 26.2408 69.0116 26.0788C69.0644 26.0592 69.1171 26.0396 69.1714 26.0193C69.3185 25.9766 69.3185 25.9766 69.5742 25.9766Z" fill="white"/>
<path d="M73.9731 57.7865C75.1486 57.8178 76.3237 57.8564 77.4987 57.9044C77.537 57.906 77.5752 57.9075 77.6147 57.9091C77.9774 57.9239 78.34 57.9388 78.7027 57.9539C79.1607 57.973 79.6187 57.9916 80.0768 58.0096C80.4029 58.0224 80.7289 58.0358 81.055 58.0496C81.2484 58.0578 81.4419 58.0657 81.6354 58.073C81.8492 58.0811 82.0629 58.0904 82.2766 58.0997C82.3402 58.102 82.4038 58.1042 82.4693 58.1065C82.5272 58.1092 82.585 58.112 82.6446 58.1148C82.695 58.1168 82.7453 58.1189 82.7972 58.121C82.9417 58.1481 82.9874 58.1833 83.0763 58.2979C83.127 58.389 83.127 58.389 83.1722 58.4917C83.1982 58.5503 83.1982 58.5503 83.2248 58.6101C83.2433 58.6526 83.2618 58.6952 83.2809 58.739C83.3007 58.7839 83.3205 58.8287 83.3409 58.875C83.4065 59.0234 83.4715 59.1721 83.5366 59.3208C83.5826 59.4252 83.6286 59.5297 83.6747 59.6341C83.7699 59.85 83.8649 60.0659 83.9597 60.2819C84.0883 60.5749 84.2174 60.8676 84.3468 61.1603C84.3765 61.2273 84.3765 61.2273 84.4067 61.2957C84.4463 61.3853 84.486 61.4749 84.5256 61.5646C84.5855 61.7 84.6453 61.8355 84.7051 61.971C85.0187 62.6815 85.3342 63.3911 85.65 64.1006C85.9749 64.8306 86.2967 65.5618 86.617 66.2938C86.9231 66.9929 87.235 67.6893 87.5493 68.3847C87.8203 68.9847 88.0855 69.5867 88.3454 70.1915C88.5768 70.7279 88.8162 71.2606 89.0567 71.7929C89.3318 72.402 89.605 73.0117 89.8717 73.6244C90.1553 74.2757 90.4427 74.9252 90.7315 75.5742C91.1215 76.4502 91.5099 77.3268 91.8966 78.2043C91.9341 78.2892 91.9716 78.3742 92.0091 78.4591C92.0272 78.5003 92.0454 78.5415 92.0641 78.5839C92.159 78.7987 92.2548 79.0129 92.352 79.2266C92.5397 79.6394 92.7207 80.0505 92.8793 80.4755C93.0119 80.813 93.1652 81.1416 93.3154 81.4716C93.4187 81.6987 93.5213 81.9261 93.624 82.1535C93.6448 82.1994 93.6655 82.2453 93.6869 82.2925C93.8761 82.7114 94.0624 83.1315 94.2475 83.5523C94.2627 83.5868 94.2779 83.6213 94.2936 83.6569C94.3565 83.8 94.4195 83.9431 94.4824 84.0862C94.6934 84.5658 94.9052 85.0451 95.1169 85.5244C95.1376 85.5712 95.1582 85.6179 95.1795 85.6661C95.4737 86.3319 95.7687 86.9972 96.0647 87.6623C96.3684 88.345 96.6705 89.0284 96.9723 89.712C97.2335 90.3036 97.4954 90.8949 97.7585 91.4857C98.0712 92.188 98.3816 92.8912 98.6904 93.5952C98.71 93.6398 98.7296 93.6843 98.7497 93.7303C98.9354 94.1533 99.1209 94.5764 99.3053 95C99.3304 95.0575 99.3555 95.115 99.3814 95.1742C99.4253 95.2748 99.4691 95.3754 99.5127 95.4762C99.6221 95.7266 99.7391 95.9713 99.8631 96.2148C100.099 96.6804 100.304 97.1599 100.512 97.6386C100.571 97.7734 100.63 97.9081 100.689 98.0429C100.727 98.1313 100.766 98.2196 100.804 98.308C100.996 98.7464 101.19 99.1835 101.385 99.6203C101.578 99.6203 101.688 99.5581 101.863 99.4749C101.894 99.4601 101.926 99.4454 101.958 99.4302C102.058 99.383 102.158 99.3355 102.258 99.2879C102.358 99.2403 102.458 99.1929 102.558 99.1456C102.649 99.1028 102.739 99.0597 102.83 99.0165C102.97 98.9555 102.97 98.9555 103.073 98.9555C103.006 99.4889 102.923 100.018 102.829 100.547C102.815 100.627 102.801 100.706 102.787 100.785C102.75 100.998 102.712 101.211 102.674 101.424C102.635 101.648 102.595 101.872 102.556 102.096C102.489 102.472 102.423 102.848 102.356 103.224C102.263 103.752 102.17 104.281 102.076 104.81C101.951 105.52 101.826 106.229 101.7 106.939C101.687 107.016 101.673 107.092 101.66 107.168C101.654 107.204 101.647 107.24 101.641 107.277C101.635 107.311 101.629 107.346 101.622 107.382C101.605 107.479 101.588 107.577 101.57 107.675C101.549 107.792 101.529 107.909 101.511 108.027C101.502 108.078 101.494 108.129 101.485 108.182C101.478 108.226 101.471 108.271 101.463 108.317C101.454 108.35 101.445 108.383 101.436 108.417C101.402 108.434 101.369 108.45 101.334 108.468C101.206 108.416 101.084 108.361 100.96 108.3C100.922 108.282 100.883 108.264 100.844 108.245C100.717 108.184 100.591 108.123 100.464 108.062C100.376 108.019 100.287 107.977 100.199 107.935C100.017 107.848 99.8358 107.761 99.6542 107.674C99.3084 107.508 98.9615 107.344 98.6143 107.182C98.4716 107.115 98.329 107.047 98.1864 106.98C98.0795 106.93 97.9726 106.88 97.8657 106.83C97.5408 106.677 97.2159 106.524 96.891 106.371C96.7825 106.32 96.674 106.269 96.5655 106.218C96.2366 106.063 95.9077 105.908 95.5789 105.753C94.6347 105.308 93.6894 104.866 92.742 104.428C92.742 104.377 92.742 104.326 92.742 104.274C92.849 104.194 92.849 104.194 92.998 104.11C93.0517 104.079 93.1055 104.048 93.1609 104.016C93.2178 103.984 93.2747 103.952 93.3334 103.919C93.3889 103.888 93.4445 103.856 93.5017 103.823C93.6094 103.762 93.7172 103.701 93.8252 103.64C93.9448 103.572 94.0634 103.503 94.1818 103.433C94.3274 103.354 94.3274 103.354 94.4297 103.354C94.0369 102.464 93.6436 101.574 93.2343 100.691C93.2066 100.631 93.179 100.572 93.1505 100.51C93.125 100.455 93.0995 100.4 93.0733 100.344C93.0512 100.297 93.029 100.249 93.0063 100.2C92.9453 100.072 92.9453 100.072 92.8443 99.9272C92.7877 99.9614 92.7311 99.9956 92.6727 100.031C92.1198 100.364 91.5643 100.693 91.0071 101.019C90.4962 101.317 89.9866 101.618 89.4777 101.921C89.0247 102.189 88.5703 102.456 88.1155 102.721C87.6838 102.974 87.2539 103.23 86.8256 103.488C86.3297 103.787 85.8297 104.078 85.3275 104.366C85.0188 104.544 84.7116 104.723 84.4071 104.908C84.072 105.11 83.7338 105.307 83.3959 105.505C82.9049 105.792 82.4147 106.081 81.9256 106.371C81.4181 106.672 80.9093 106.972 80.3999 107.27C79.953 107.531 79.507 107.794 79.0617 108.059C78.5541 108.36 78.0454 108.659 77.536 108.957C77.0891 109.219 76.6431 109.482 76.1978 109.746C76.0271 109.848 75.8563 109.949 75.6856 110.05C75.5624 110.123 75.4392 110.196 75.3161 110.269C73.4316 111.389 73.4316 111.389 72.9503 111.485C72.9503 105.477 72.9503 99.4689 72.9503 93.2788C73.4059 93.0762 73.4059 93.0762 73.8708 92.8696C74.0964 92.7442 74.3163 92.6179 74.5356 92.4829C74.6243 92.4292 74.7131 92.3757 74.8019 92.3222C74.8623 92.2858 74.9226 92.2494 74.9829 92.2129C75.2967 92.0232 75.6144 91.8405 75.9325 91.6582C76.3803 91.4009 76.8263 91.1408 77.2706 90.8774C77.6549 90.6496 78.0401 90.4233 78.4256 90.1975C78.4568 90.1792 78.488 90.1609 78.5202 90.1421C78.6796 90.0487 78.839 89.9553 78.9984 89.862C79.2785 89.6979 79.5586 89.5336 79.8388 89.3694C79.9931 89.2789 80.1475 89.1884 80.3019 89.0979C80.3637 89.0617 80.4255 89.0255 80.4872 88.9893C80.858 88.7719 80.858 88.7719 80.9507 88.7176C81.0125 88.6814 81.0743 88.6451 81.1361 88.6089C81.2904 88.5184 81.4447 88.428 81.599 88.3376C81.8795 88.1731 82.16 88.0087 82.4404 87.8442C83.0926 87.4617 83.7451 87.0795 84.3983 86.6988C85.0494 86.3193 85.6993 85.9377 86.3493 85.5564C86.0634 84.8666 85.7556 84.188 85.4416 83.5107C85.1404 82.8612 84.8424 82.2106 84.5509 81.5567C84.335 81.073 84.1152 80.5913 83.8946 80.1098C83.6177 79.5058 83.3438 78.9006 83.0729 78.2939C82.8551 77.8069 82.6337 77.3217 82.4114 76.8368C82.1346 76.2327 81.8607 75.6275 81.5898 75.0208C81.372 74.5339 81.1506 74.0486 80.9283 73.5637C80.6515 72.9598 80.3777 72.3546 80.1068 71.748C79.9052 71.2973 79.7006 70.8481 79.4948 70.3994C79.2203 69.8005 78.9469 69.2012 78.6781 68.5998C78.652 68.5417 78.6259 68.4836 78.599 68.4237C78.5755 68.371 78.5521 68.3183 78.5279 68.264C78.5074 68.218 78.4869 68.1721 78.4658 68.1248C78.4224 68.0148 78.4224 68.0148 78.4224 67.9126C78.2951 68.0277 78.2228 68.1398 78.147 68.2933C78.1241 68.3393 78.1012 68.3853 78.0776 68.4327C78.0409 68.5075 78.0409 68.5075 78.0035 68.5838C77.9777 68.6358 77.9519 68.6877 77.9253 68.7413C77.8424 68.9081 77.76 69.0752 77.6777 69.2422C77.5701 69.4597 77.4624 69.677 77.3546 69.8943C77.3148 69.9745 77.3148 69.9745 77.2742 70.0564C77.0908 70.4251 76.9017 70.7904 76.7086 71.1542C76.5235 71.5032 76.3463 71.8558 76.171 72.2099C75.8858 72.7857 75.596 73.3586 75.2936 73.9257C75.2266 74.0515 75.1615 74.1776 75.0982 74.3053C74.5888 74.3263 74.0845 74.2702 73.5783 74.2207C73.4283 74.206 73.2783 74.1919 73.1283 74.1779C73.0331 74.1688 72.9379 74.1596 72.8428 74.1504C72.7978 74.1462 72.7529 74.142 72.7066 74.1377C72.3936 74.1066 72.3936 74.1066 72.3366 74.0495C72.3279 73.8902 72.3226 73.7318 72.3194 73.5723C72.3182 73.5215 72.317 73.4707 72.3158 73.4184C72.3118 73.2467 72.3083 73.075 72.3048 72.9032C72.3035 72.8433 72.3022 72.7833 72.3008 72.7215C72.2757 71.5637 72.2603 70.4058 72.2487 69.2479C72.2468 69.0571 72.2448 68.8663 72.2428 68.6756C72.2424 68.6376 72.242 68.5997 72.2416 68.5605C72.2354 67.9914 72.2243 67.4226 72.2103 66.8536C72.189 65.9754 72.1757 65.0974 72.1749 64.219C72.1749 64.1835 72.1749 64.148 72.1748 64.1115C72.1732 61.7146 72.473 59.7209 73.9731 57.7865Z" fill="white"/>
<path d="M33.6217 65.0488C33.6944 65.0646 33.767 65.0805 33.8397 65.0965C33.9003 65.1098 33.9003 65.1098 33.9622 65.1233C34.1357 65.1636 34.3054 65.215 34.4752 65.2684C34.5119 65.2797 34.5487 65.2911 34.5865 65.3028C34.6662 65.3275 34.7459 65.3523 34.8256 65.3772C35.001 65.4319 35.1764 65.4861 35.3519 65.5404C35.4463 65.5697 35.5407 65.5989 35.6351 65.6282C36.1365 65.7836 36.6385 65.9373 37.1405 66.0908C37.2991 66.1393 37.4577 66.1878 37.6163 66.2363C37.8312 66.3021 38.0461 66.3678 38.261 66.4336C38.7338 66.5782 39.2066 66.723 39.6793 66.8677C39.9402 66.9476 40.2011 67.0274 40.4619 67.1073C40.5663 67.1392 40.6708 67.1712 40.7752 67.2032C40.8269 67.219 40.8785 67.2348 40.9318 67.2511C43.9076 68.1621 43.9076 68.1621 44.0642 68.21C44.1687 68.242 44.2732 68.274 44.3778 68.306C44.6371 68.3854 44.8964 68.4648 45.1557 68.5442C45.646 68.6943 46.1362 68.8443 46.6266 68.9942C46.8587 69.0651 47.0908 69.1361 47.3229 69.2071C47.4338 69.241 47.5447 69.2749 47.6556 69.3088C47.8091 69.3557 47.9627 69.4026 48.1162 69.4496C48.1615 69.4634 48.2067 69.4772 48.2534 69.4915C48.3166 69.5108 48.3166 69.5108 48.3811 69.5306C48.4355 69.5472 48.4355 69.5472 48.4911 69.5642C48.6323 69.6086 48.7726 69.6558 48.9131 69.7027C48.9133 69.7704 48.9133 69.7704 48.9136 69.8395C48.9178 70.9409 48.9225 72.0423 48.9278 73.1437C48.9303 73.6763 48.9327 74.2089 48.9347 74.7416C48.9363 75.2061 48.9384 75.6706 48.9408 76.1351C48.9421 76.3808 48.9432 76.6265 48.9439 76.8722C48.9446 77.1041 48.9457 77.3359 48.9472 77.5677C48.9477 77.6523 48.948 77.7368 48.9481 77.8214C48.9508 79.6432 49.508 81.2964 50.8085 82.6032C50.8753 82.6674 50.9424 82.7314 51.0099 82.7949C51.0436 82.8287 51.0774 82.8625 51.1122 82.8972C50.6961 83.2389 50.2794 83.5773 49.8466 83.8977C49.6362 84.0542 49.4299 84.2159 49.2231 84.3771C48.9584 84.5836 48.6935 84.7897 48.4272 84.994C48.1622 85.1975 47.8982 85.4024 47.6345 85.6077C47.2088 85.9392 46.7813 86.2685 46.3532 86.597C46.0294 86.8457 45.7065 87.0957 45.3843 87.3465C44.9585 87.6781 44.5311 88.0073 44.103 88.3358C43.7791 88.5845 43.4563 88.8345 43.1341 89.0854C42.7083 89.4169 42.2809 89.7461 41.8527 90.0746C41.5289 90.3234 41.206 90.5733 40.8838 90.8242C40.4581 91.1557 40.0306 91.485 39.6025 91.8134C39.2348 92.0959 38.8683 92.38 38.5028 92.6654C38.4293 92.7227 38.3555 92.7797 38.2815 92.8364C38.208 92.8939 38.136 92.9533 38.0654 93.0144C38.0307 93.0434 37.996 93.0724 37.9602 93.1024C37.9298 93.1289 37.8994 93.1555 37.8681 93.1828C37.7642 93.2278 37.7642 93.2278 37.6164 93.1944C36.8533 92.8641 36.1142 92.3706 35.514 91.7959C35.4528 91.7406 35.4528 91.7406 35.3903 91.6842C34.3824 90.7387 33.6613 89.259 33.6154 87.8705C33.6152 87.8 33.6152 87.7295 33.6155 87.6591C33.6154 87.6198 33.6153 87.5805 33.6153 87.5401C33.6151 87.4086 33.6154 87.2772 33.6156 87.1458C33.6156 87.0506 33.6155 86.9553 33.6155 86.8601C33.6154 86.5985 33.6156 86.3369 33.6158 86.0753C33.616 85.7932 33.616 85.5111 33.6159 85.2289C33.6159 84.7402 33.6161 84.2514 33.6163 83.7626C33.6168 83.056 33.6169 82.3493 33.617 81.6426C33.6171 80.4961 33.6174 79.3495 33.6179 78.203C33.6184 77.0892 33.6187 75.9755 33.6189 74.8617C33.6189 74.8273 33.619 74.793 33.619 74.7576C33.619 74.4128 33.6191 74.068 33.6192 73.7231C33.6197 70.8317 33.6206 67.9403 33.6217 65.0488Z" fill="white"/>
<path d="M64.0291 90.5158C64.0836 90.5488 64.138 90.5817 64.1942 90.6157C64.2529 90.6521 64.3116 90.6885 64.3703 90.725C64.4631 90.7814 64.556 90.8377 64.6489 90.8939C64.7127 90.9325 64.7764 90.9712 64.8401 91.01C65.1588 91.2038 65.4817 91.3899 65.8055 91.5752C66.1735 91.7865 66.5406 91.9992 66.9056 92.2158C67.0455 92.2988 67.1857 92.3814 67.3259 92.464C67.4815 92.5556 67.6361 92.6486 67.7898 92.7433C68.3805 93.0962 68.8853 93.2439 69.5739 93.4834C69.5739 99.4915 69.5739 105.5 69.5739 111.69C68.6781 111.451 68.6781 111.451 68.3018 111.265C68.2572 111.243 68.2126 111.221 68.1667 111.199C67.6309 110.932 67.124 110.616 66.6141 110.304C66.3625 110.151 66.1081 110.003 65.8534 109.855C65.7518 109.796 65.6503 109.737 65.5487 109.678C65.4968 109.648 65.4449 109.618 65.3914 109.586C65.0902 109.411 64.7893 109.235 64.4886 109.059C64.4416 109.032 64.4416 109.032 64.3937 109.004C63.9067 108.718 63.4224 108.429 62.9391 108.137C62.4949 107.87 62.0463 107.611 61.5969 107.353C61.2882 107.175 60.981 106.996 60.6764 106.812C60.3414 106.609 60.0032 106.412 59.6653 106.214C59.1173 105.894 58.5706 105.571 58.0247 105.247C57.5717 104.978 57.1173 104.712 56.6625 104.446C56.2307 104.194 55.8009 103.938 55.3726 103.68C54.8767 103.381 54.3766 103.09 53.8745 102.801C53.5658 102.624 53.2586 102.445 52.9541 102.26C52.619 102.058 52.2808 101.861 51.9429 101.663C51.4519 101.376 50.9617 101.087 50.4726 100.797C49.9962 100.514 49.5188 100.233 49.0406 99.9528C48.5054 99.6396 47.9713 99.3243 47.438 99.0077C47.0184 98.7588 46.5978 98.5116 46.1767 98.2651C45.6414 97.9519 45.1074 97.6366 44.5741 97.32C44.1545 97.0711 43.7338 96.8239 43.3128 96.5775C42.8425 96.3022 42.3727 96.0262 41.9038 95.7486C41.8165 95.697 41.7292 95.6453 41.6419 95.5937C41.4911 95.5044 41.3407 95.4145 41.1904 95.3245C41.1263 95.2868 41.1263 95.2868 41.0609 95.2483C40.9659 95.1913 40.8732 95.1305 40.7812 95.0688C40.7812 95.035 40.7812 95.0013 40.7812 94.9665C40.8136 94.96 40.846 94.9534 40.8793 94.9466C41.9451 94.7306 43.0109 94.5146 44.0767 94.2985C44.1182 94.2901 44.1597 94.2817 44.2024 94.273C46.5142 93.8043 48.8258 93.3349 51.1371 92.864C52.7059 92.5444 54.2748 92.2256 55.8438 91.9076C55.8863 91.899 55.9287 91.8904 55.9725 91.8815C56.8182 91.7101 57.664 91.5387 58.5098 91.3675C58.8247 91.3037 59.1396 91.2399 59.4545 91.1761C59.6793 91.1306 59.904 91.0851 60.1287 91.0396C60.7847 90.9069 61.4405 90.7739 62.0956 90.6372C62.1439 90.6272 62.1921 90.6172 62.2418 90.6069C62.4551 90.5625 62.6685 90.5179 62.8817 90.4726C62.9529 90.4577 63.0242 90.4428 63.0954 90.428C63.1548 90.4154 63.2142 90.4029 63.2753 90.3899C63.5825 90.3402 63.7628 90.3519 64.0291 90.5158Z" fill="white"/>
<path d="M86.4506 85.5564C86.9016 86.5294 87.352 87.5024 87.7887 88.4819C88.0046 88.9656 88.2244 89.4475 88.4451 89.929C88.7221 90.5333 88.9961 91.1387 89.2671 91.7457C89.4984 92.263 89.7344 92.7781 89.9707 93.2931C90.2315 93.8618 90.4872 94.4326 90.7401 95.0048C91.0291 95.6587 91.3249 96.3091 91.6255 96.9578C91.8902 97.5293 92.1549 98.1008 92.4137 98.675C92.4549 98.7666 92.4965 98.858 92.538 98.9495C92.6749 99.2544 92.7953 99.5567 92.8944 99.876C92.5558 100.11 92.2061 100.321 91.8505 100.528C91.7537 100.584 91.6571 100.64 91.5605 100.697C91.425 100.776 91.2894 100.855 91.1538 100.934C90.8346 101.12 90.5156 101.307 90.1967 101.493C90.166 101.511 90.1352 101.529 90.1036 101.548C89.6185 101.832 89.1359 102.12 88.6544 102.41C88.1478 102.715 87.6371 103.012 87.126 103.309C86.8271 103.483 86.5285 103.658 86.23 103.833C86.1989 103.851 86.1677 103.87 86.1355 103.888C85.6287 104.186 85.1231 104.485 84.6179 104.785C84.1671 105.052 83.7151 105.317 83.2628 105.582C82.8159 105.844 82.3698 106.107 81.9246 106.371C81.417 106.672 80.9083 106.972 80.3989 107.27C79.9519 107.531 79.5059 107.794 79.0606 108.059C78.5531 108.36 78.0444 108.659 77.5349 108.957C77.088 109.219 76.642 109.482 76.1967 109.746C76.026 109.848 75.8553 109.949 75.6846 110.05C75.5613 110.123 75.4382 110.196 75.315 110.269C73.4305 111.389 73.4305 111.389 72.9492 111.485C72.9492 105.477 72.9492 99.4689 72.9492 93.2788C73.253 93.1437 73.5568 93.0087 73.8698 92.8696C74.0954 92.7442 74.3152 92.6179 74.5346 92.4829C74.6233 92.4292 74.7121 92.3757 74.8009 92.3222C74.8612 92.2858 74.9216 92.2494 74.9819 92.2129C75.2956 92.0232 75.6133 91.8405 75.9314 91.6582C76.3792 91.4009 76.8252 91.1408 77.2695 90.8774C77.6539 90.6496 78.0391 90.4233 78.4246 90.1975C78.4558 90.1792 78.487 90.1609 78.5191 90.1421C78.6785 90.0487 78.8379 89.9553 78.9973 89.862C79.2775 89.6979 79.5576 89.5336 79.8377 89.3694C79.9921 89.2789 80.1464 89.1884 80.3008 89.0979C80.3626 89.0617 80.4244 89.0255 80.4862 88.9893C80.857 88.7719 80.857 88.7719 80.9497 88.7176C81.0115 88.6813 81.0733 88.6451 81.1351 88.6089C81.2894 88.5184 81.4437 88.428 81.598 88.3375C81.8784 88.1731 82.1589 88.0087 82.4393 87.8442C83.0916 87.4616 83.7439 87.0791 84.3975 86.6988C84.6533 86.5499 84.9087 86.4003 85.1635 86.2496C85.3009 86.1683 85.4384 86.0872 85.5759 86.0061C85.643 85.9665 85.7101 85.9267 85.7771 85.8869C85.8703 85.8316 85.9636 85.7764 86.057 85.7214C86.1108 85.6895 86.1646 85.6577 86.22 85.6248C86.3483 85.5564 86.3483 85.5564 86.4506 85.5564Z" fill="white"/>
<path d="M92.9459 70.1627C93.0752 70.1947 93.2045 70.2268 93.3338 70.2589C93.3699 70.2678 93.4061 70.2768 93.4434 70.286C93.7776 70.3692 94.1073 70.4649 94.4368 70.5648C94.4973 70.583 94.5578 70.6012 94.6202 70.6199C94.8111 70.6772 95.002 70.7348 95.1929 70.7924C95.4437 70.868 95.6946 70.9434 95.9455 71.0187C96.0069 71.0372 96.0683 71.0556 96.1316 71.0746C96.5965 71.2134 97.0631 71.3455 97.5306 71.4752C97.8991 71.5776 98.2646 71.6862 98.629 71.8024C99.2898 72.0101 99.9531 72.2092 100.617 72.4065C100.694 72.4295 100.694 72.4295 100.773 72.4529C101.031 72.5295 101.289 72.606 101.547 72.6825C101.828 72.7659 102.108 72.8494 102.389 72.9329C102.555 72.9823 102.721 73.0316 102.887 73.081C102.924 73.0921 102.961 73.1032 103 73.1147C103.379 73.2276 103.759 73.3401 104.139 73.4515C104.514 73.5616 104.888 73.6728 105.263 73.7842C105.382 73.8195 105.5 73.8548 105.619 73.89C105.802 73.9442 105.984 73.9984 106.166 74.0526C106.346 74.106 106.525 74.1592 106.704 74.2125C106.757 74.2283 106.81 74.244 106.865 74.2603C107.192 74.3573 107.521 74.4504 107.85 74.5416C107.892 74.5533 107.934 74.5651 107.978 74.5772C108.081 74.6058 108.185 74.6345 108.288 74.6632C108.292 76.2997 108.295 77.9363 108.296 79.5729C108.296 79.7666 108.297 79.9603 108.297 80.1541C108.297 80.1926 108.297 80.2312 108.297 80.2709C108.298 80.8933 108.299 81.5156 108.3 82.1379C108.302 82.7777 108.302 83.4175 108.303 84.0573C108.303 84.4513 108.304 84.8453 108.305 85.2392C108.306 85.5427 108.306 85.8461 108.306 86.1495C108.306 86.273 108.306 86.3965 108.307 86.52C108.311 87.4478 108.292 88.4006 107.972 89.2833C107.957 89.3273 107.941 89.3713 107.925 89.4167C107.616 90.2735 107.122 90.9812 106.498 91.6422C106.467 91.6768 106.436 91.7114 106.404 91.747C105.789 92.4011 104.963 92.807 104.192 93.2448C103.988 93.3617 103.786 93.483 103.585 93.6051C103.249 93.8075 102.911 94.0047 102.573 94.2024C102.095 94.4825 101.617 94.7631 101.139 95.0456C101.055 95.0954 100.971 95.1452 100.887 95.195C100.666 95.3257 100.446 95.4565 100.229 95.5924C100.198 95.6114 100.168 95.6304 100.136 95.6499C100.051 95.7033 99.9659 95.757 99.8807 95.8108C99.7477 95.8869 99.7477 95.8869 99.6454 95.8869C99.621 95.8312 99.5966 95.7754 99.5715 95.718C98.9867 94.3812 98.9867 94.3812 98.3925 93.0486C98.1288 92.4631 97.8701 91.8755 97.6126 91.2874C97.3138 90.6053 97.0128 89.9243 96.708 89.2449C96.3968 88.5512 96.088 87.8565 95.7811 87.1609C95.4847 86.4893 95.1878 85.8179 94.8893 85.1472C94.673 84.6611 94.457 84.1748 94.242 83.688C94.2217 83.6421 94.2014 83.5961 94.1804 83.5487C94.0774 83.3156 93.9746 83.0823 93.8721 82.8489C93.6923 82.4401 93.5116 82.032 93.3236 81.6269C93.2454 81.4585 93.168 81.2897 93.0906 81.1209C93.0543 81.0424 93.0176 80.9641 92.9804 80.886C92.7796 80.4638 92.6366 80.1453 92.7413 79.675C92.8647 79.0826 92.9175 78.518 92.9169 77.9135C92.9173 77.8283 92.9179 77.743 92.9185 77.6577C92.9198 77.4292 92.9203 77.2007 92.9206 76.9722C92.9211 76.7323 92.9225 76.4924 92.9237 76.2525C92.9259 75.7995 92.9274 75.3466 92.9286 74.8936C92.93 74.3774 92.9322 73.8611 92.9345 73.3449C92.9393 72.2841 92.9429 71.2234 92.9459 70.1627Z" fill="white"/>
<path d="M57.895 56.9109C57.9557 56.9109 58.0164 56.911 58.0789 56.911C58.1126 56.911 58.1462 56.9109 58.1809 56.9109C58.2945 56.9108 58.4082 56.9111 58.5218 56.9114C58.6029 56.9114 58.684 56.9114 58.7652 56.9114C58.9861 56.9113 59.207 56.9116 59.428 56.912C59.6586 56.9123 59.8892 56.9124 60.1199 56.9124C60.5569 56.9126 60.994 56.913 61.431 56.9135C61.9284 56.9141 62.4259 56.9144 62.9233 56.9146C63.9469 56.9151 64.9704 56.916 65.9939 56.9172C66.4354 57.7947 66.4354 57.7947 66.6174 58.1923C66.6352 58.2308 66.6529 58.2693 66.6712 58.309C66.7279 58.4321 66.7845 58.5552 66.841 58.6784C66.8814 58.7663 66.9219 58.8543 66.9624 58.9423C67.2278 59.5192 67.4911 60.0971 67.7532 60.6754C68.0736 61.3822 68.3978 62.0873 68.7247 62.7911C68.7611 62.8701 68.7971 62.9493 68.8324 63.0288C68.9296 63.2454 69.0326 63.4518 69.1548 63.6553C69.6935 64.6011 69.6485 65.535 69.6309 66.5919C69.6273 66.8423 69.627 67.0927 69.6264 67.3431C69.6246 67.8153 69.62 68.2874 69.6144 68.7596C69.608 69.298 69.605 69.8364 69.6022 70.3748C69.5963 71.4804 69.5864 72.586 69.5738 73.6916C68.6287 73.6037 67.6851 73.5046 66.7419 73.3968C66.4933 73.3684 66.2446 73.3406 65.9958 73.3139C65.752 73.2879 65.5084 73.2604 65.2649 73.232C65.1728 73.2215 65.0806 73.2115 64.9884 73.2019C64.8602 73.1886 64.7324 73.1736 64.6045 73.1581C64.5668 73.1546 64.529 73.151 64.4901 73.1474C64.2853 73.1205 64.2141 73.0903 64.0809 72.9282C64.0052 72.7822 63.9339 72.6379 63.87 72.4864C63.8339 72.4018 63.8339 72.4018 63.797 72.3155C63.771 72.2538 63.745 72.1921 63.7181 72.1286C63.6594 71.9909 63.6004 71.8534 63.5413 71.7159C63.5254 71.6787 63.5095 71.6416 63.4931 71.6033C63.2932 71.1386 63.0869 70.6768 62.8809 70.2148C62.2576 68.8166 62.2576 68.8166 61.9921 68.2099C61.9717 68.1635 61.9512 68.1171 61.9301 68.0694C61.8003 67.7713 61.8003 67.7713 61.8003 67.6569C61.6888 67.7604 61.6155 67.8544 61.5484 67.9907C61.5306 68.0265 61.5128 68.0623 61.4944 68.0992C61.4756 68.1378 61.4568 68.1765 61.4373 68.2163C61.4174 68.2566 61.3974 68.2969 61.3768 68.3384C61.3342 68.4245 61.2917 68.5107 61.2493 68.5969C61.1395 68.8203 61.0287 69.0433 60.9179 69.2663C60.8964 69.3096 60.875 69.353 60.8528 69.3976C60.7039 69.6975 60.5518 69.9954 60.3939 70.2907C60.1926 70.6677 60.0012 71.049 59.8111 71.4318C59.6399 71.7756 59.4628 72.1157 59.2826 72.4548C59.1198 72.7625 58.9633 73.073 58.8085 73.3848C58.6139 73.7767 58.4139 74.1652 58.2086 74.5516C58.0209 74.9065 57.8419 75.2654 57.6634 75.625C57.4913 75.9706 57.3133 76.3126 57.1322 76.6535C56.89 77.111 56.66 77.5747 56.4305 78.0386C56.2734 77.964 56.1804 77.8984 56.0693 77.7638C55.9127 77.5785 55.7512 77.3985 55.5866 77.2204C55.4312 77.0516 55.2766 76.8824 55.1264 76.709C54.9544 76.5106 54.7769 76.3175 54.5992 76.1243C54.3724 75.8776 54.1483 75.6287 53.9245 75.3793C53.8478 75.294 53.7711 75.2088 53.6944 75.1236C53.3875 74.7826 53.0807 74.4417 52.7738 74.1007C52.7167 74.0373 52.7167 74.0373 52.6584 73.9725C52.5829 73.8886 52.5076 73.8047 52.4322 73.7208C52.2215 73.486 52.0093 73.2526 51.7958 73.0204C51.6141 72.8229 51.4353 72.6234 51.2598 72.4205C51.1065 72.247 50.9489 72.0774 50.7911 71.908C50.6824 71.7904 50.5871 71.6773 50.498 71.5437C50.5165 71.3537 50.5824 71.2025 50.6672 71.033C50.7047 70.9575 50.7047 70.9575 50.7429 70.8804C50.7706 70.8255 50.7983 70.7705 50.8268 70.7139C50.8561 70.6553 50.8853 70.5966 50.9154 70.5362C50.9966 70.3734 51.0781 70.2109 51.1597 70.0484C51.2476 69.8731 51.3352 69.6976 51.4228 69.5221C51.5945 69.1785 51.7665 68.8351 51.9386 68.4916C52.1389 68.092 52.3388 67.6922 52.5387 67.2924C52.8953 66.5793 53.2522 65.8663 53.6092 65.1535C53.956 64.4611 54.3026 63.7687 54.649 63.0761C54.6703 63.0335 54.6916 62.9908 54.7136 62.9468C54.7566 62.8609 54.7996 62.7749 54.8426 62.6889C54.8638 62.6465 54.885 62.6041 54.9069 62.5604C54.928 62.5181 54.9492 62.4758 54.971 62.4323C55.3007 61.773 55.6306 61.1138 55.9605 60.4547C56.0802 60.2155 56.1999 59.9762 56.3196 59.737C56.5094 59.3577 56.6992 58.9784 56.8892 58.5991C56.976 58.4258 57.0629 58.2524 57.1496 58.079C57.2434 57.8914 57.3374 57.7039 57.4314 57.5164C57.4591 57.461 57.4867 57.4056 57.5152 57.3485C57.5528 57.2738 57.5528 57.2738 57.591 57.1975C57.6236 57.1325 57.6236 57.1325 57.6568 57.0662C57.7357 56.9183 57.7357 56.9183 57.895 56.9109Z" fill="white"/>
<path d="M69.575 25.9766C69.575 31.9678 69.575 37.959 69.575 44.1318C69.1658 44.2852 69.1658 44.2852 68.9739 44.353C67.9876 44.7027 67.1069 45.2695 66.2164 45.8111C66.1808 45.8327 66.1452 45.8543 66.1085 45.8765C66.0431 45.9163 65.9779 45.9563 65.9128 45.9965C65.6995 46.1263 65.6995 46.1263 65.5859 46.1263C65.5859 40.1182 65.5859 34.1101 65.5859 27.9199C66.0247 27.6668 66.4635 27.4136 66.9156 27.1528C67.1118 27.0347 67.308 26.9165 67.5101 26.7948C68.8903 25.9766 68.8903 25.9766 69.575 25.9766Z" fill="white"/>
</g>
</g>
<defs>
<linearGradient id="paint0_linear_1424_6000" x1="84.0001" y1="33.8333" x2="5.83342" y2="131.833" gradientUnits="userSpaceOnUse">
<stop/>
<stop offset="1" stop-opacity="0"/>
</linearGradient>
<clipPath id="clip0_1424_6000">
<rect width="140" height="140" rx="32.6667" fill="white"/>
</clipPath>
<clipPath id="clip1_1424_6000">
<rect width="74.6667" height="85.7132" fill="white" transform="translate(33.6221 25.9767)"/>
</clipPath>
</defs>
</svg>
